<svg width="375" height="373" xmlns="http://www.w3.org/2000/svg"><defs><linearGradient x1="221.401%" y1="-103.001%" x2="-5.513%" y2="110.015%" id="a"><stop stop-color="#FF52C1" offset="0%"/><stop stop-color="#F952C5" offset="7.3%"/><stop stop-color="#9952FF" stop-opacity="0" offset="100%"/></linearGradient><linearGradient x1="212.128%" y1="-106.466%" x2="-5.513%" y2="110.015%" id="b"><stop stop-color="#FF52C1" offset="0%"/><stop stop-color="#F952C5" offset="0%"/><stop stop-color="#9952FF" stop-opacity="0" offset="100%"/></linearGradient><linearGradient x1="21.681%" y1="5.006%" x2="145.861%" y2="145.591%" id="c"><stop stop-color="#FF52C1" offset="0%"/><stop stop-color="#9952FF" offset="100%"/></linearGradient></defs><g fill="none" fill-rule="evenodd"><path fill="url(#a)" d="M0 265.7L319.689 0H375v73.607L0 313.664z"/><path fill="url(#b)" transform="matrix(-1 0 0 1 375 0)" d="M0 318.687L375 102v119.176L0 360.228z"/><rect fill="url(#c)" opacity=".558" transform="rotate(45 332.799 180.799)" x="318.799" y="166.799" width="28" height="28" rx="3"/><rect fill="url(#c)" opacity=".387" transform="rotate(45 122.364 366.364)" x="117.864" y="361.864" width="9" height="9" rx="1"/><rect fill="url(#c)" opacity=".387" transform="rotate(45 164.728 344.728)" x="155.728" y="335.728" width="18" height="18" rx="1"/><rect fill="url(#c)" opacity=".387" transform="rotate(45 139.728 86.9)" x="132.728" y="79.899" width="14" height="14" rx="1"/><rect fill="url(#c)" opacity=".387" transform="rotate(45 325.02 344.02)" x="316.521" y="335.521" width="17" height="17" rx="1"/><rect fill="url(#c)" opacity=".503" transform="rotate(45 63.598 282.497)" x="42.598" y="261.497" width="42" height="42" rx="3"/></g></svg>